<svg width="102" height="36" viewBox="0 0 102 36" fill="none" xmlns="http://www.w3.org/2000/svg">
<rect width="35" height="35" transform="translate(0 0.5)" fill="white"/>
<path fill-rule="evenodd" clip-rule="evenodd" d="M17.3557 10.5263C18.5551 10.5263 19.5273 9.54455 19.5273 8.33347C19.5273 7.1224 18.5551 6.14062 17.3557 6.14062C16.1564 6.14062 15.1842 7.1224 15.1842 8.33347C15.1842 9.54455 16.1564 10.5263 17.3557 10.5263ZM13.7455 11.6231C13.6315 11.6231 13.5294 11.6939 13.4895 11.8007L6.8301 29.5932C6.7632 29.7719 6.89534 29.9625 7.08618 29.9625H9.62354C9.72144 29.9687 9.82448 29.9719 9.93292 29.9719H14.0949C14.1539 29.9719 14.1847 29.9039 14.1448 29.8605C13.8503 29.5395 12.9359 28.5703 11.7246 27.5461L13.7254 22.0712C15.3921 21.9035 18.3842 22.0252 20.6135 24.4804C21.9691 26.3054 22.3161 28.89 22.3944 29.7056C22.4083 29.8504 22.5291 29.9625 22.6745 29.9625H24.3001C24.3932 29.9696 24.4919 29.9733 24.5966 29.9733H28.074C28.1495 29.9733 28.21 29.9119 28.2067 29.8365C28.1564 28.7187 27.4935 27.7448 26.5154 27.1857C26.102 25.7925 25.4396 24.1306 24.4138 22.8357C23.2342 21.3469 21.8651 20.3991 20.8604 19.8439C21.2212 19.5606 21.5231 19.2231 21.7661 18.8312C22.1987 18.1374 22.415 17.3054 22.415 16.3353C22.415 15.3717 22.2019 14.5365 21.7757 13.8298C21.3558 13.1167 20.7609 12.5707 19.9911 12.1916C19.2277 11.8126 18.3306 11.6231 17.3 11.6231H13.7455ZM15.1948 18.0506H16.4697C16.9469 18.0506 17.3413 17.9928 17.6531 17.8772C17.9648 17.7551 18.2034 17.5688 18.3688 17.3183C18.5406 17.0613 18.6265 16.7337 18.6265 16.3353C18.6265 15.9306 18.5406 15.5998 18.3688 15.3428C18.2034 15.0794 17.9616 14.8834 17.6435 14.755C17.3254 14.6265 16.9342 14.5622 16.4697 14.5622L15.1948 18.0506Z" fill="#151B27"/>
<path d="M36.7656 26.5V9.53125H43.4219C47.2891 9.53125 49.4922 11.7109 49.4922 15.0625C49.4922 17.3828 48.4258 19.0703 46.4922 19.8906L50.1016 26.5H46.2109L42.9766 20.4766H40.2812V26.5H36.7656ZM40.2812 17.6172H42.7656C44.8516 17.6172 45.8594 16.75 45.8594 15.0625C45.8594 13.3516 44.8516 12.4141 42.7656 12.4141H40.2812V17.6172ZM67.4688 18.0156C67.4688 23.5469 64.0234 26.7344 59.5469 26.7344C55.0234 26.7344 51.6016 23.5234 51.6016 18.0156C51.6016 12.4844 55.0234 9.29688 59.5469 9.29688C64.0234 9.29688 67.4688 12.4844 67.4688 18.0156ZM63.8828 18.0156C63.8828 14.3828 62.1719 12.4141 59.5469 12.4141C56.9219 12.4141 55.1875 14.3828 55.1875 18.0156C55.1875 21.6484 56.9219 23.6172 59.5469 23.6172C62.1719 23.6172 63.8828 21.6484 63.8828 18.0156ZM71.875 26.5H68.0781L73.9609 9.53125H78.4844L84.3438 26.5H80.5703L79.3047 22.5859H73.1641L71.875 26.5ZM74.0547 19.8438H78.4141L76.2812 13.3516H76.1641L74.0547 19.8438ZM92.2422 26.5H86.2656V9.53125H92.3125C97.4219 9.53125 100.539 12.7188 100.539 17.9922C100.539 23.3125 97.4219 26.5 92.2422 26.5ZM89.7812 23.4766H92.1016C95.3359 23.4766 97.0234 21.7891 97.0234 17.9922C97.0234 14.2188 95.3359 12.5547 92.125 12.5547H89.7812V23.4766Z" fill="#151B27"/>
</svg>
